<?xml version="1.0" encoding="UTF-8"?>
<svg width="126px" height="140px" viewBox="0 0 126 140" version="1.1" xmlns="http://www.w3.org/2000/svg" xmlns:xlink="http://www.w3.org/1999/xlink">
    <!-- Generator: Sketch 48.1 (47250) - http://www.bohemiancoding.com/sketch -->
    <title>account</title>
    <desc>Created with Sketch.</desc>
    <defs></defs>
    <g id="Page-1" stroke="none" stroke-width="1" fill="none" fill-rule="evenodd">
        <g id="account" fill="#003082" fill-rule="nonzero">
            <g id="Shape">
                <path d="M62.5,74 C46.275,74 33,59.2 33,40.7 L33,33.3 C33,14.8 46.275,0 62.5,0 C78.725,0 92,14.8 92,33.3 L92,40.7 C92,59.2 78.725,74 62.5,74 Z M62.5,7.4 C49.9625,7.4 40.375,19.24 40.375,33.3 L40.375,40.7 C40.375,54.76 49.9625,66.6 62.5,66.6 C75.0375,66.6 84.625,54.76 84.625,40.7 L84.625,33.3 C84.625,19.24 75.0375,7.4 62.5,7.4 Z"></path>
                <path d="M66.3157895,140 L0,140 L0,118.04878 C0,100.487805 14.7368421,80 33.1578947,80 C35.3684211,80 36.8421053,81.4634146 36.8421053,83.6585366 C36.8421053,85.8536585 35.3684211,87.3170732 33.1578947,87.3170732 C19.1578947,87.3170732 7.36842105,104.146341 7.36842105,118.04878 L7.36842105,132.682927 L66.3157895,132.682927 C68.5263158,132.682927 70,134.146341 70,136.341463 C70,138.536585 68.5263158,140 66.3157895,140 Z"></path>
                <path d="M125,140 L58.6842105,140 C56.4736842,140 55,138.536585 55,136.341463 C55,134.146341 56.4736842,132.682927 58.6842105,132.682927 L117.631579,132.682927 L117.631579,118.04878 C117.631579,104.146341 105.842105,87.3170732 91.8421053,87.3170732 C89.6315789,87.3170732 88.1578947,85.8536585 88.1578947,83.6585366 C88.1578947,81.4634146 89.6315789,80 91.8421053,80 C110.263158,80 125,100.487805 125,118.04878 L125,140 Z"></path>
            </g>
        </g>
    </g>
</svg>